<mxfile host="Electron" modified="2024-11-13T15:12:11.435Z" agent="Mozilla/5.0 (Macintosh; Intel Mac OS X 10_15_7) AppleWebKit/537.36 (KHTML, like Gecko) draw.io/24.2.5 Chrome/120.0.6099.109 Electron/28.1.0 Safari/537.36" etag="yZ1n-mxSbLjeVUZYIqPy" version="24.2.5" type="device">
  <diagram name="Page-1" id="mgI_bG1M7Ejlit0xKFyf">
    <mxGraphModel dx="836" dy="606" grid="1" gridSize="6" guides="1" tooltips="1" connect="1" arrows="1" fold="1" page="1" pageScale="1" pageWidth="827" pageHeight="1169" math="0" shadow="0">
      <root>
        <mxCell id="0" />
        <mxCell id="1" parent="0" />
        <mxCell id="qcMQwbJ4HSQ0VtLKpdM1-1" value="" style="group" vertex="1" connectable="0" parent="1">
          <mxGeometry x="491" y="700" width="157" height="60" as="geometry" />
        </mxCell>
        <mxCell id="qcMQwbJ4HSQ0VtLKpdM1-2" value="" style="endArrow=none;html=1;rounded=0;" edge="1" parent="qcMQwbJ4HSQ0VtLKpdM1-1">
          <mxGeometry width="50" height="50" relative="1" as="geometry">
            <mxPoint as="sourcePoint" />
            <mxPoint x="40.90909090909091" as="targetPoint" />
          </mxGeometry>
        </mxCell>
        <mxCell id="qcMQwbJ4HSQ0VtLKpdM1-3" value="" style="endArrow=none;html=1;rounded=0;" edge="1" parent="qcMQwbJ4HSQ0VtLKpdM1-1">
          <mxGeometry width="50" height="50" relative="1" as="geometry">
            <mxPoint x="27.27272727272727" y="60" as="sourcePoint" />
            <mxPoint as="targetPoint" />
          </mxGeometry>
        </mxCell>
        <mxCell id="qcMQwbJ4HSQ0VtLKpdM1-4" value="" style="endArrow=none;html=1;rounded=0;" edge="1" parent="qcMQwbJ4HSQ0VtLKpdM1-1">
          <mxGeometry width="50" height="50" relative="1" as="geometry">
            <mxPoint x="109.09090909090908" as="sourcePoint" />
            <mxPoint x="40.90909090909091" as="targetPoint" />
            <Array as="points">
              <mxPoint x="75" y="22.5" />
            </Array>
          </mxGeometry>
        </mxCell>
        <mxCell id="qcMQwbJ4HSQ0VtLKpdM1-5" value="" style="endArrow=none;html=1;rounded=0;" edge="1" parent="qcMQwbJ4HSQ0VtLKpdM1-1">
          <mxGeometry width="50" height="50" relative="1" as="geometry">
            <mxPoint x="109.09090909090908" as="sourcePoint" />
            <mxPoint x="150" as="targetPoint" />
          </mxGeometry>
        </mxCell>
        <mxCell id="qcMQwbJ4HSQ0VtLKpdM1-6" value="" style="endArrow=none;html=1;rounded=0;" edge="1" parent="qcMQwbJ4HSQ0VtLKpdM1-1">
          <mxGeometry width="50" height="50" relative="1" as="geometry">
            <mxPoint x="122.72727272727272" y="60" as="sourcePoint" />
            <mxPoint x="150" as="targetPoint" />
          </mxGeometry>
        </mxCell>
        <mxCell id="qcMQwbJ4HSQ0VtLKpdM1-7" value="" style="endArrow=none;html=1;rounded=0;" edge="1" parent="qcMQwbJ4HSQ0VtLKpdM1-1">
          <mxGeometry width="50" height="50" relative="1" as="geometry">
            <mxPoint x="27.27272727272727" y="60" as="sourcePoint" />
            <mxPoint x="122.72727272727272" y="60" as="targetPoint" />
          </mxGeometry>
        </mxCell>
        <mxCell id="qcMQwbJ4HSQ0VtLKpdM1-8" value="&lt;font style=&quot;font-size: 14px;&quot;&gt;mod multiplier&lt;/font&gt;" style="text;html=1;align=center;verticalAlign=middle;resizable=0;points=[];autosize=1;strokeColor=none;fillColor=none;" vertex="1" parent="qcMQwbJ4HSQ0VtLKpdM1-1">
          <mxGeometry x="21" y="17" width="108" height="36" as="geometry" />
        </mxCell>
        <mxCell id="qcMQwbJ4HSQ0VtLKpdM1-29" value="" style="endArrow=classic;html=1;rounded=0;endFill=1;" edge="1" parent="qcMQwbJ4HSQ0VtLKpdM1-1">
          <mxGeometry width="50" height="50" relative="1" as="geometry">
            <mxPoint x="-5" y="90" as="sourcePoint" />
            <mxPoint x="9" y="20" as="targetPoint" />
            <Array as="points">
              <mxPoint x="-5" y="20" />
            </Array>
          </mxGeometry>
        </mxCell>
        <mxCell id="qcMQwbJ4HSQ0VtLKpdM1-45" value="&lt;font style=&quot;font-size: 8px;&quot;&gt;multiplication_result&amp;nbsp;&lt;/font&gt;" style="text;html=1;align=center;verticalAlign=middle;whiteSpace=wrap;rounded=0;fontSize=8;" vertex="1" parent="qcMQwbJ4HSQ0VtLKpdM1-1">
          <mxGeometry x="49" y="50" width="58" height="7" as="geometry" />
        </mxCell>
        <mxCell id="qcMQwbJ4HSQ0VtLKpdM1-56" value="&lt;font style=&quot;font-size: 8px;&quot;&gt;factor_a&lt;/font&gt;" style="text;html=1;align=center;verticalAlign=middle;whiteSpace=wrap;rounded=0;fontSize=8;" vertex="1" parent="qcMQwbJ4HSQ0VtLKpdM1-1">
          <mxGeometry x="7" y="2" width="36" height="12" as="geometry" />
        </mxCell>
        <mxCell id="qcMQwbJ4HSQ0VtLKpdM1-59" value="&lt;font style=&quot;font-size: 8px;&quot;&gt;factor_b&lt;/font&gt;" style="text;html=1;align=center;verticalAlign=middle;whiteSpace=wrap;rounded=0;fontSize=8;" vertex="1" parent="qcMQwbJ4HSQ0VtLKpdM1-1">
          <mxGeometry x="107" width="36" height="12" as="geometry" />
        </mxCell>
        <mxCell id="qcMQwbJ4HSQ0VtLKpdM1-67" value="&lt;font style=&quot;font-size: 7px;&quot;&gt;done&lt;/font&gt;" style="text;html=1;align=center;verticalAlign=middle;whiteSpace=wrap;rounded=0;" vertex="1" parent="qcMQwbJ4HSQ0VtLKpdM1-1">
          <mxGeometry x="127" y="44" width="30" height="8" as="geometry" />
        </mxCell>
        <mxCell id="qcMQwbJ4HSQ0VtLKpdM1-70" value="modulus_n" style="text;html=1;align=center;verticalAlign=middle;whiteSpace=wrap;rounded=0;fontSize=8;" vertex="1" parent="qcMQwbJ4HSQ0VtLKpdM1-1">
          <mxGeometry x="93" y="14" width="42" height="12" as="geometry" />
        </mxCell>
        <mxCell id="qcMQwbJ4HSQ0VtLKpdM1-17" value="" style="group" vertex="1" connectable="0" parent="1">
          <mxGeometry x="234" y="699" width="156" height="60" as="geometry" />
        </mxCell>
        <mxCell id="qcMQwbJ4HSQ0VtLKpdM1-18" value="" style="endArrow=none;html=1;rounded=0;" edge="1" parent="qcMQwbJ4HSQ0VtLKpdM1-17">
          <mxGeometry width="50" height="50" relative="1" as="geometry">
            <mxPoint as="sourcePoint" />
            <mxPoint x="40.90909090909091" as="targetPoint" />
          </mxGeometry>
        </mxCell>
        <mxCell id="qcMQwbJ4HSQ0VtLKpdM1-19" value="" style="endArrow=none;html=1;rounded=0;" edge="1" parent="qcMQwbJ4HSQ0VtLKpdM1-17">
          <mxGeometry width="50" height="50" relative="1" as="geometry">
            <mxPoint x="27.27272727272727" y="60" as="sourcePoint" />
            <mxPoint as="targetPoint" />
          </mxGeometry>
        </mxCell>
        <mxCell id="qcMQwbJ4HSQ0VtLKpdM1-20" value="" style="endArrow=none;html=1;rounded=0;" edge="1" parent="qcMQwbJ4HSQ0VtLKpdM1-17">
          <mxGeometry width="50" height="50" relative="1" as="geometry">
            <mxPoint x="109.09090909090908" as="sourcePoint" />
            <mxPoint x="40.90909090909091" as="targetPoint" />
            <Array as="points">
              <mxPoint x="75" y="22.5" />
            </Array>
          </mxGeometry>
        </mxCell>
        <mxCell id="qcMQwbJ4HSQ0VtLKpdM1-21" value="" style="endArrow=none;html=1;rounded=0;" edge="1" parent="qcMQwbJ4HSQ0VtLKpdM1-17">
          <mxGeometry width="50" height="50" relative="1" as="geometry">
            <mxPoint x="109.09090909090908" as="sourcePoint" />
            <mxPoint x="150" as="targetPoint" />
          </mxGeometry>
        </mxCell>
        <mxCell id="qcMQwbJ4HSQ0VtLKpdM1-22" value="" style="endArrow=none;html=1;rounded=0;" edge="1" parent="qcMQwbJ4HSQ0VtLKpdM1-17">
          <mxGeometry width="50" height="50" relative="1" as="geometry">
            <mxPoint x="122.72727272727272" y="60" as="sourcePoint" />
            <mxPoint x="150" as="targetPoint" />
          </mxGeometry>
        </mxCell>
        <mxCell id="qcMQwbJ4HSQ0VtLKpdM1-23" value="" style="endArrow=none;html=1;rounded=0;" edge="1" parent="qcMQwbJ4HSQ0VtLKpdM1-17">
          <mxGeometry width="50" height="50" relative="1" as="geometry">
            <mxPoint x="27.27272727272727" y="60" as="sourcePoint" />
            <mxPoint x="122.72727272727272" y="60" as="targetPoint" />
          </mxGeometry>
        </mxCell>
        <mxCell id="qcMQwbJ4HSQ0VtLKpdM1-24" value="&lt;font style=&quot;font-size: 14px;&quot;&gt;mod multiplier&lt;/font&gt;" style="text;html=1;align=center;verticalAlign=middle;resizable=0;points=[];autosize=1;strokeColor=none;fillColor=none;" vertex="1" parent="qcMQwbJ4HSQ0VtLKpdM1-17">
          <mxGeometry x="21" y="17" width="108" height="36" as="geometry" />
        </mxCell>
        <mxCell id="qcMQwbJ4HSQ0VtLKpdM1-35" value="&lt;font style=&quot;font-size: 10px;&quot;&gt;clk&lt;/font&gt;" style="text;html=1;align=center;verticalAlign=middle;whiteSpace=wrap;rounded=0;" vertex="1" parent="qcMQwbJ4HSQ0VtLKpdM1-17">
          <mxGeometry x="-12" y="39" width="36" height="8" as="geometry" />
        </mxCell>
        <mxCell id="qcMQwbJ4HSQ0VtLKpdM1-44" value="&lt;font style=&quot;font-size: 8px;&quot;&gt;multiplication_result&amp;nbsp;&lt;/font&gt;" style="text;html=1;align=center;verticalAlign=middle;whiteSpace=wrap;rounded=0;" vertex="1" parent="qcMQwbJ4HSQ0VtLKpdM1-17">
          <mxGeometry x="41" y="47" width="68" height="12" as="geometry" />
        </mxCell>
        <mxCell id="qcMQwbJ4HSQ0VtLKpdM1-55" value="&lt;font style=&quot;font-size: 8px;&quot;&gt;factor_a&lt;/font&gt;" style="text;html=1;align=center;verticalAlign=middle;whiteSpace=wrap;rounded=0;" vertex="1" parent="qcMQwbJ4HSQ0VtLKpdM1-17">
          <mxGeometry x="6" width="36" height="12" as="geometry" />
        </mxCell>
        <mxCell id="qcMQwbJ4HSQ0VtLKpdM1-57" value="&lt;font style=&quot;font-size: 8px;&quot;&gt;factor_b&lt;/font&gt;" style="text;html=1;align=center;verticalAlign=middle;whiteSpace=wrap;rounded=0;" vertex="1" parent="qcMQwbJ4HSQ0VtLKpdM1-17">
          <mxGeometry x="108" width="36" height="12" as="geometry" />
        </mxCell>
        <mxCell id="qcMQwbJ4HSQ0VtLKpdM1-66" value="&lt;font style=&quot;font-size: 7px;&quot;&gt;done&lt;/font&gt;" style="text;html=1;align=center;verticalAlign=middle;whiteSpace=wrap;rounded=0;" vertex="1" parent="qcMQwbJ4HSQ0VtLKpdM1-17">
          <mxGeometry x="126" y="39" width="30" height="8" as="geometry" />
        </mxCell>
        <mxCell id="qcMQwbJ4HSQ0VtLKpdM1-69" value="modulus_n" style="text;html=1;align=center;verticalAlign=middle;whiteSpace=wrap;rounded=0;fontSize=8;" vertex="1" parent="qcMQwbJ4HSQ0VtLKpdM1-17">
          <mxGeometry x="96" y="15" width="42" height="12" as="geometry" />
        </mxCell>
        <mxCell id="qcMQwbJ4HSQ0VtLKpdM1-25" value="&lt;meta charset=&quot;utf-8&quot;&gt;&lt;span style=&quot;color: rgb(0, 0, 0); font-family: Helvetica; font-size: x-small; font-style: normal; font-variant-ligatures: normal; font-variant-caps: normal; font-weight: 400; letter-spacing: normal; orphans: 2; text-align: center; text-indent: 0px; text-transform: none; widows: 2; word-spacing: 0px; -webkit-text-stroke-width: 0px; white-space: nowrap; background-color: rgb(251, 251, 251); text-decoration-thickness: initial; text-decoration-style: initial; text-decoration-color: initial; display: inline !important; float: none;&quot;&gt;load_multiply&lt;/span&gt;" style="endArrow=none;html=1;rounded=0;exitX=1;exitY=0.25;exitDx=0;exitDy=0;" edge="1" parent="1" source="qcMQwbJ4HSQ0VtLKpdM1-74">
          <mxGeometry x="-0.6615" y="-1" width="50" height="50" relative="1" as="geometry">
            <mxPoint x="162" y="790" as="sourcePoint" />
            <mxPoint x="486" y="790" as="targetPoint" />
            <mxPoint as="offset" />
          </mxGeometry>
        </mxCell>
        <mxCell id="qcMQwbJ4HSQ0VtLKpdM1-27" value="" style="endArrow=classic;html=1;rounded=0;endFill=1;" edge="1" parent="1">
          <mxGeometry width="50" height="50" relative="1" as="geometry">
            <mxPoint x="230" y="790" as="sourcePoint" />
            <mxPoint x="246" y="726" as="targetPoint" />
            <Array as="points">
              <mxPoint x="230" y="726" />
            </Array>
          </mxGeometry>
        </mxCell>
        <mxCell id="qcMQwbJ4HSQ0VtLKpdM1-30" value="&lt;font style=&quot;font-size: 10px;&quot;&gt;reset_and_load&lt;/font&gt;" style="text;html=1;align=center;verticalAlign=middle;whiteSpace=wrap;rounded=0;" vertex="1" parent="1">
          <mxGeometry x="168" y="708" width="71" height="15" as="geometry" />
        </mxCell>
        <mxCell id="qcMQwbJ4HSQ0VtLKpdM1-32" value="" style="endArrow=classic;html=1;rounded=0;endFill=1;" edge="1" parent="1">
          <mxGeometry width="50" height="50" relative="1" as="geometry">
            <mxPoint x="498" y="815" as="sourcePoint" />
            <mxPoint x="511" y="745" as="targetPoint" />
            <Array as="points">
              <mxPoint x="498" y="745" />
            </Array>
          </mxGeometry>
        </mxCell>
        <mxCell id="qcMQwbJ4HSQ0VtLKpdM1-33" value="&lt;span style=&quot;color: rgb(0, 0, 0); font-family: Helvetica; font-style: normal; font-variant-ligatures: normal; font-variant-caps: normal; font-weight: 400; letter-spacing: normal; orphans: 2; text-align: center; text-indent: 0px; text-transform: none; widows: 2; word-spacing: 0px; -webkit-text-stroke-width: 0px; white-space: nowrap; background-color: rgb(251, 251, 251); text-decoration-thickness: initial; text-decoration-style: initial; text-decoration-color: initial; float: none; display: inline !important;&quot;&gt;&lt;font style=&quot;font-size: 10px;&quot;&gt;clk&lt;/font&gt;&lt;/span&gt;" style="endArrow=none;html=1;rounded=0;" edge="1" parent="1">
          <mxGeometry x="-1" y="1" width="50" height="50" relative="1" as="geometry">
            <mxPoint x="156" y="816" as="sourcePoint" />
            <mxPoint x="498" y="815" as="targetPoint" />
            <mxPoint as="offset" />
          </mxGeometry>
        </mxCell>
        <mxCell id="qcMQwbJ4HSQ0VtLKpdM1-34" value="" style="endArrow=classic;html=1;rounded=0;startArrow=none;startFill=0;endFill=1;" edge="1" parent="1">
          <mxGeometry width="50" height="50" relative="1" as="geometry">
            <mxPoint x="241" y="815" as="sourcePoint" />
            <mxPoint x="258" y="750" as="targetPoint" />
            <Array as="points">
              <mxPoint x="241" y="750" />
            </Array>
          </mxGeometry>
        </mxCell>
        <mxCell id="qcMQwbJ4HSQ0VtLKpdM1-36" value="" style="ellipse;whiteSpace=wrap;html=1;fillColor=#000000;" vertex="1" parent="1">
          <mxGeometry x="228" y="788" width="3" height="3" as="geometry" />
        </mxCell>
        <mxCell id="qcMQwbJ4HSQ0VtLKpdM1-37" value="" style="ellipse;whiteSpace=wrap;html=1;fillColor=#000000;" vertex="1" parent="1">
          <mxGeometry x="239" y="813" width="3" height="3" as="geometry" />
        </mxCell>
        <mxCell id="qcMQwbJ4HSQ0VtLKpdM1-38" value="" style="ellipse;whiteSpace=wrap;html=1;fillColor=#000000;" vertex="1" parent="1">
          <mxGeometry x="245" y="921" width="3" height="3" as="geometry" />
        </mxCell>
        <mxCell id="qcMQwbJ4HSQ0VtLKpdM1-39" value="" style="endArrow=classic;html=1;rounded=0;entryX=0.108;entryY=0.833;entryDx=0;entryDy=0;entryPerimeter=0;" edge="1" parent="1" target="qcMQwbJ4HSQ0VtLKpdM1-128">
          <mxGeometry width="50" height="50" relative="1" as="geometry">
            <mxPoint x="312" y="759" as="sourcePoint" />
            <mxPoint x="162" y="594" as="targetPoint" />
            <Array as="points">
              <mxPoint x="312" y="882" />
              <mxPoint x="102" y="882" />
              <mxPoint x="102" y="708" />
              <mxPoint x="102" y="576" />
            </Array>
          </mxGeometry>
        </mxCell>
        <mxCell id="qcMQwbJ4HSQ0VtLKpdM1-97" value="&lt;font style=&quot;font-size: 10px;&quot;&gt;multiplication_result&lt;/font&gt;" style="edgeLabel;html=1;align=center;verticalAlign=middle;resizable=0;points=[];" vertex="1" connectable="0" parent="qcMQwbJ4HSQ0VtLKpdM1-39">
          <mxGeometry x="0.5179" y="-2" relative="1" as="geometry">
            <mxPoint x="-8" y="-95" as="offset" />
          </mxGeometry>
        </mxCell>
        <mxCell id="qcMQwbJ4HSQ0VtLKpdM1-40" value="" style="endArrow=none;html=1;rounded=0;" edge="1" parent="1">
          <mxGeometry width="50" height="50" relative="1" as="geometry">
            <mxPoint x="306" y="847" as="sourcePoint" />
            <mxPoint x="318" y="834" as="targetPoint" />
          </mxGeometry>
        </mxCell>
        <mxCell id="qcMQwbJ4HSQ0VtLKpdM1-41" value="&lt;font style=&quot;font-size: 10px;&quot;&gt;multiplication_result&lt;/font&gt;" style="endArrow=classic;html=1;rounded=0;" edge="1" parent="1">
          <mxGeometry x="0.8636" y="-12" width="50" height="50" relative="1" as="geometry">
            <mxPoint x="570" y="760" as="sourcePoint" />
            <mxPoint x="714" y="588" as="targetPoint" />
            <Array as="points">
              <mxPoint x="570" y="882" />
              <mxPoint x="720" y="882" />
              <mxPoint x="786" y="882" />
              <mxPoint x="786" y="588" />
            </Array>
            <mxPoint as="offset" />
          </mxGeometry>
        </mxCell>
        <mxCell id="qcMQwbJ4HSQ0VtLKpdM1-42" value="" style="endArrow=none;html=1;rounded=0;" edge="1" parent="1">
          <mxGeometry width="50" height="50" relative="1" as="geometry">
            <mxPoint x="564" y="848" as="sourcePoint" />
            <mxPoint x="576" y="835" as="targetPoint" />
          </mxGeometry>
        </mxCell>
        <mxCell id="qcMQwbJ4HSQ0VtLKpdM1-47" value="" style="endArrow=none;html=1;rounded=0;" edge="1" parent="1">
          <mxGeometry width="50" height="50" relative="1" as="geometry">
            <mxPoint x="257" y="652" as="sourcePoint" />
            <mxPoint x="269" y="642" as="targetPoint" />
          </mxGeometry>
        </mxCell>
        <mxCell id="qcMQwbJ4HSQ0VtLKpdM1-49" value="" style="endArrow=none;html=1;rounded=0;" edge="1" parent="1">
          <mxGeometry width="50" height="50" relative="1" as="geometry">
            <mxPoint x="354" y="652" as="sourcePoint" />
            <mxPoint x="366" y="639" as="targetPoint" />
          </mxGeometry>
        </mxCell>
        <mxCell id="qcMQwbJ4HSQ0VtLKpdM1-51" value="" style="endArrow=none;html=1;rounded=0;" edge="1" parent="1">
          <mxGeometry width="50" height="50" relative="1" as="geometry">
            <mxPoint x="510" y="653" as="sourcePoint" />
            <mxPoint x="522" y="640" as="targetPoint" />
          </mxGeometry>
        </mxCell>
        <mxCell id="qcMQwbJ4HSQ0VtLKpdM1-53" value="" style="endArrow=none;html=1;rounded=0;" edge="1" parent="1">
          <mxGeometry width="50" height="50" relative="1" as="geometry">
            <mxPoint x="618" y="652" as="sourcePoint" />
            <mxPoint x="630" y="639" as="targetPoint" />
          </mxGeometry>
        </mxCell>
        <mxCell id="qcMQwbJ4HSQ0VtLKpdM1-62" value="" style="endArrow=none;html=1;rounded=0;" edge="1" parent="1">
          <mxGeometry width="50" height="50" relative="1" as="geometry">
            <mxPoint x="403" y="727" as="sourcePoint" />
            <mxPoint x="415" y="714" as="targetPoint" />
          </mxGeometry>
        </mxCell>
        <mxCell id="qcMQwbJ4HSQ0VtLKpdM1-64" value="" style="endArrow=none;html=1;rounded=0;" edge="1" parent="1">
          <mxGeometry width="50" height="50" relative="1" as="geometry">
            <mxPoint x="648" y="693" as="sourcePoint" />
            <mxPoint x="660" y="680" as="targetPoint" />
          </mxGeometry>
        </mxCell>
        <mxCell id="qcMQwbJ4HSQ0VtLKpdM1-65" value="&lt;font style=&quot;font-size: 10px;&quot;&gt;multiplication_done&lt;/font&gt;" style="endArrow=classic;html=1;rounded=0;" edge="1" parent="1">
          <mxGeometry x="0.4745" width="50" height="50" relative="1" as="geometry">
            <mxPoint x="361" y="750" as="sourcePoint" />
            <mxPoint x="408" y="840" as="targetPoint" />
            <Array as="points">
              <mxPoint x="384" y="750" />
              <mxPoint x="384" y="840" />
            </Array>
            <mxPoint as="offset" />
          </mxGeometry>
        </mxCell>
        <mxCell id="qcMQwbJ4HSQ0VtLKpdM1-68" value="&lt;meta charset=&quot;utf-8&quot;&gt;&lt;span style=&quot;color: rgb(0, 0, 0); font-family: Helvetica; font-size: 10px; font-style: normal; font-variant-ligatures: normal; font-variant-caps: normal; font-weight: 400; letter-spacing: normal; orphans: 2; text-align: center; text-indent: 0px; text-transform: none; widows: 2; word-spacing: 0px; -webkit-text-stroke-width: 0px; white-space: nowrap; background-color: rgb(255, 255, 255); text-decoration-thickness: initial; text-decoration-style: initial; text-decoration-color: initial; display: inline !important; float: none;&quot;&gt;multiplication_done&lt;/span&gt;" style="endArrow=classic;html=1;rounded=0;" edge="1" parent="1">
          <mxGeometry x="0.383" y="10" width="50" height="50" relative="1" as="geometry">
            <mxPoint x="621" y="744.5" as="sourcePoint" />
            <mxPoint x="668" y="834.5" as="targetPoint" />
            <Array as="points">
              <mxPoint x="644" y="744.5" />
              <mxPoint x="644" y="834.5" />
            </Array>
            <mxPoint as="offset" />
          </mxGeometry>
        </mxCell>
        <mxCell id="qcMQwbJ4HSQ0VtLKpdM1-90" style="edgeStyle=orthogonalEdgeStyle;rounded=0;orthogonalLoop=1;jettySize=auto;html=1;exitX=0;exitY=0.5;exitDx=0;exitDy=0;" edge="1" parent="1">
          <mxGeometry relative="1" as="geometry">
            <mxPoint x="678" y="576" as="sourcePoint" />
            <mxPoint x="360" y="698" as="targetPoint" />
          </mxGeometry>
        </mxCell>
        <mxCell id="qcMQwbJ4HSQ0VtLKpdM1-95" value="&lt;font style=&quot;font-size: 10px;&quot;&gt;load_b_reg&lt;/font&gt;" style="edgeLabel;html=1;align=center;verticalAlign=middle;resizable=0;points=[];" vertex="1" connectable="0" parent="qcMQwbJ4HSQ0VtLKpdM1-90">
          <mxGeometry x="0.6679" y="2" relative="1" as="geometry">
            <mxPoint x="7" y="47" as="offset" />
          </mxGeometry>
        </mxCell>
        <mxCell id="qcMQwbJ4HSQ0VtLKpdM1-72" value="&lt;font style=&quot;font-size: 10px;&quot;&gt;&lt;b&gt;message&lt;/b&gt;&lt;/font&gt;" style="endArrow=classic;html=1;rounded=0;entryX=1;entryY=0.25;entryDx=0;entryDy=0;" edge="1" parent="1" target="qcMQwbJ4HSQ0VtLKpdM1-113">
          <mxGeometry x="-0.8621" width="50" height="50" relative="1" as="geometry">
            <mxPoint x="738" y="480" as="sourcePoint" />
            <mxPoint x="738" y="540" as="targetPoint" />
            <Array as="points">
              <mxPoint x="738" y="543" />
            </Array>
            <mxPoint as="offset" />
          </mxGeometry>
        </mxCell>
        <mxCell id="qcMQwbJ4HSQ0VtLKpdM1-73" value="" style="endArrow=none;html=1;rounded=0;" edge="1" parent="1">
          <mxGeometry width="50" height="50" relative="1" as="geometry">
            <mxPoint x="732" y="519" as="sourcePoint" />
            <mxPoint x="744" y="506" as="targetPoint" />
          </mxGeometry>
        </mxCell>
        <mxCell id="qcMQwbJ4HSQ0VtLKpdM1-74" value="shift reg&lt;div&gt;exponent&lt;/div&gt;" style="rounded=0;whiteSpace=wrap;html=1;" vertex="1" parent="1">
          <mxGeometry x="18" y="780" width="78" height="36" as="geometry" />
        </mxCell>
        <mxCell id="qcMQwbJ4HSQ0VtLKpdM1-75" value="&lt;font style=&quot;font-size: 10px;&quot;&gt;&lt;b&gt;key&lt;/b&gt;&lt;/font&gt;" style="endArrow=classic;html=1;rounded=0;entryX=0.5;entryY=0;entryDx=0;entryDy=0;" edge="1" parent="1" target="qcMQwbJ4HSQ0VtLKpdM1-74">
          <mxGeometry x="-0.4023" width="50" height="50" relative="1" as="geometry">
            <mxPoint x="57" y="720" as="sourcePoint" />
            <mxPoint x="54" y="780" as="targetPoint" />
            <mxPoint as="offset" />
          </mxGeometry>
        </mxCell>
        <mxCell id="qcMQwbJ4HSQ0VtLKpdM1-76" value="" style="endArrow=none;html=1;rounded=0;" edge="1" parent="1">
          <mxGeometry width="50" height="50" relative="1" as="geometry">
            <mxPoint x="51" y="759" as="sourcePoint" />
            <mxPoint x="63" y="746" as="targetPoint" />
          </mxGeometry>
        </mxCell>
        <mxCell id="qcMQwbJ4HSQ0VtLKpdM1-98" style="edgeStyle=orthogonalEdgeStyle;rounded=0;orthogonalLoop=1;jettySize=auto;html=1;exitX=0;exitY=0.5;exitDx=0;exitDy=0;" edge="1" parent="1" source="qcMQwbJ4HSQ0VtLKpdM1-77">
          <mxGeometry relative="1" as="geometry">
            <mxPoint x="636" y="720" as="targetPoint" />
            <Array as="points">
              <mxPoint x="654" y="666" />
              <mxPoint x="654" y="720" />
            </Array>
          </mxGeometry>
        </mxCell>
        <mxCell id="qcMQwbJ4HSQ0VtLKpdM1-99" value="&lt;font size=&quot;1&quot;&gt;modulus_val&lt;/font&gt;" style="edgeStyle=orthogonalEdgeStyle;rounded=0;orthogonalLoop=1;jettySize=auto;html=1;exitX=0;exitY=0.25;exitDx=0;exitDy=0;entryX=1;entryY=0.5;entryDx=0;entryDy=0;" edge="1" parent="1">
          <mxGeometry x="0.4518" y="-2" relative="1" as="geometry">
            <mxPoint x="374" y="720" as="targetPoint" />
            <mxPoint x="686" y="660" as="sourcePoint" />
            <Array as="points">
              <mxPoint x="686" y="666" />
              <mxPoint x="440" y="666" />
              <mxPoint x="440" y="720" />
            </Array>
            <mxPoint as="offset" />
          </mxGeometry>
        </mxCell>
        <mxCell id="qcMQwbJ4HSQ0VtLKpdM1-77" value="modulus_val" style="rounded=0;whiteSpace=wrap;html=1;" vertex="1" parent="1">
          <mxGeometry x="684" y="654" width="78" height="24" as="geometry" />
        </mxCell>
        <mxCell id="qcMQwbJ4HSQ0VtLKpdM1-78" value="&lt;b style=&quot;&quot;&gt;&lt;font style=&quot;font-size: 10px;&quot;&gt;modulus&lt;/font&gt;&lt;/b&gt;" style="endArrow=classic;html=1;rounded=0;entryX=0.5;entryY=0;entryDx=0;entryDy=0;" edge="1" parent="1">
          <mxGeometry x="-0.4023" width="50" height="50" relative="1" as="geometry">
            <mxPoint x="743" y="600" as="sourcePoint" />
            <mxPoint x="743" y="654" as="targetPoint" />
            <mxPoint as="offset" />
          </mxGeometry>
        </mxCell>
        <mxCell id="qcMQwbJ4HSQ0VtLKpdM1-79" value="" style="endArrow=none;html=1;rounded=0;" edge="1" parent="1">
          <mxGeometry width="50" height="50" relative="1" as="geometry">
            <mxPoint x="738" y="639" as="sourcePoint" />
            <mxPoint x="750" y="626" as="targetPoint" />
          </mxGeometry>
        </mxCell>
        <mxCell id="qcMQwbJ4HSQ0VtLKpdM1-85" style="edgeStyle=orthogonalEdgeStyle;rounded=0;orthogonalLoop=1;jettySize=auto;html=1;exitX=1;exitY=0.5;exitDx=0;exitDy=0;entryX=0.5;entryY=0;entryDx=0;entryDy=0;" edge="1" parent="1">
          <mxGeometry relative="1" as="geometry">
            <mxPoint x="210" y="565" as="sourcePoint" />
            <mxPoint x="516" y="700.0000000000001" as="targetPoint" />
          </mxGeometry>
        </mxCell>
        <mxCell id="qcMQwbJ4HSQ0VtLKpdM1-84" style="edgeStyle=orthogonalEdgeStyle;rounded=0;orthogonalLoop=1;jettySize=auto;html=1;exitX=1;exitY=0.5;exitDx=0;exitDy=0;entryX=0.661;entryY=-0.163;entryDx=0;entryDy=0;entryPerimeter=0;" edge="1" parent="1" target="qcMQwbJ4HSQ0VtLKpdM1-55">
          <mxGeometry relative="1" as="geometry">
            <mxPoint x="210" y="564" as="sourcePoint" />
            <mxPoint x="263.03999999999996" y="694.14" as="targetPoint" />
            <Array as="points">
              <mxPoint x="210" y="565" />
              <mxPoint x="264" y="565" />
            </Array>
          </mxGeometry>
        </mxCell>
        <mxCell id="qcMQwbJ4HSQ0VtLKpdM1-94" value="&lt;font style=&quot;font-size: 10px;&quot;&gt;load_a_reg&lt;/font&gt;" style="edgeLabel;html=1;align=center;verticalAlign=middle;resizable=0;points=[];" vertex="1" connectable="0" parent="qcMQwbJ4HSQ0VtLKpdM1-84">
          <mxGeometry x="0.2859" y="-2" relative="1" as="geometry">
            <mxPoint y="42" as="offset" />
          </mxGeometry>
        </mxCell>
        <mxCell id="qcMQwbJ4HSQ0VtLKpdM1-86" value="" style="ellipse;whiteSpace=wrap;html=1;fillColor=#000000;" vertex="1" parent="1">
          <mxGeometry x="262" y="563" width="3" height="3" as="geometry" />
        </mxCell>
        <mxCell id="qcMQwbJ4HSQ0VtLKpdM1-87" style="edgeStyle=orthogonalEdgeStyle;rounded=0;orthogonalLoop=1;jettySize=auto;html=1;exitX=0;exitY=0.5;exitDx=0;exitDy=0;" edge="1" parent="1">
          <mxGeometry relative="1" as="geometry">
            <mxPoint x="678" y="576.0000000000001" as="sourcePoint" />
            <mxPoint x="624" y="696" as="targetPoint" />
          </mxGeometry>
        </mxCell>
        <mxCell id="qcMQwbJ4HSQ0VtLKpdM1-91" value="" style="ellipse;whiteSpace=wrap;html=1;fillColor=#000000;" vertex="1" parent="1">
          <mxGeometry x="623" y="574" width="3" height="3" as="geometry" />
        </mxCell>
        <mxCell id="qcMQwbJ4HSQ0VtLKpdM1-100" value="" style="ellipse;whiteSpace=wrap;html=1;fillColor=#000000;" vertex="1" parent="1">
          <mxGeometry x="652" y="664" width="3" height="3" as="geometry" />
        </mxCell>
        <mxCell id="qcMQwbJ4HSQ0VtLKpdM1-114" value="&lt;font style=&quot;font-size: 10px;&quot;&gt;base_squared&lt;/font&gt;" style="edgeStyle=orthogonalEdgeStyle;rounded=0;orthogonalLoop=1;jettySize=auto;html=1;exitX=0.5;exitY=0;exitDx=0;exitDy=0;endArrow=none;endFill=0;startArrow=classic;startFill=1;" edge="1" parent="1">
          <mxGeometry x="1" relative="1" as="geometry">
            <mxPoint x="696" y="462" as="targetPoint" />
            <mxPoint x="696" y="527" as="sourcePoint" />
            <mxPoint as="offset" />
          </mxGeometry>
        </mxCell>
        <mxCell id="qcMQwbJ4HSQ0VtLKpdM1-113" value="" style="group;movable=1;resizable=1;rotatable=1;deletable=1;editable=1;locked=0;connectable=1;" vertex="1" connectable="0" parent="1">
          <mxGeometry x="678" y="522" width="36" height="84" as="geometry" />
        </mxCell>
        <mxCell id="qcMQwbJ4HSQ0VtLKpdM1-105" value="" style="endArrow=none;html=1;rounded=0;movable=1;resizable=1;rotatable=1;deletable=1;editable=1;locked=0;connectable=1;" edge="1" parent="qcMQwbJ4HSQ0VtLKpdM1-113">
          <mxGeometry width="50" height="50" relative="1" as="geometry">
            <mxPoint y="70" as="sourcePoint" />
            <mxPoint x="36" y="84" as="targetPoint" />
          </mxGeometry>
        </mxCell>
        <mxCell id="qcMQwbJ4HSQ0VtLKpdM1-106" value="" style="endArrow=none;html=1;rounded=0;movable=1;resizable=1;rotatable=1;deletable=1;editable=1;locked=0;connectable=1;" edge="1" parent="qcMQwbJ4HSQ0VtLKpdM1-113">
          <mxGeometry width="50" height="50" relative="1" as="geometry">
            <mxPoint x="36" as="sourcePoint" />
            <mxPoint y="14" as="targetPoint" />
          </mxGeometry>
        </mxCell>
        <mxCell id="qcMQwbJ4HSQ0VtLKpdM1-107" value="" style="endArrow=none;html=1;rounded=0;movable=1;resizable=1;rotatable=1;deletable=1;editable=1;locked=0;connectable=1;" edge="1" parent="qcMQwbJ4HSQ0VtLKpdM1-113">
          <mxGeometry width="50" height="50" relative="1" as="geometry">
            <mxPoint x="36" y="84" as="sourcePoint" />
            <mxPoint x="36" as="targetPoint" />
          </mxGeometry>
        </mxCell>
        <mxCell id="qcMQwbJ4HSQ0VtLKpdM1-108" value="" style="endArrow=none;html=1;rounded=0;movable=1;resizable=1;rotatable=1;deletable=1;editable=1;locked=0;connectable=1;" edge="1" parent="qcMQwbJ4HSQ0VtLKpdM1-113">
          <mxGeometry width="50" height="50" relative="1" as="geometry">
            <mxPoint y="14" as="sourcePoint" />
            <mxPoint y="70" as="targetPoint" />
          </mxGeometry>
        </mxCell>
        <mxCell id="qcMQwbJ4HSQ0VtLKpdM1-112" value="Base" style="text;html=1;align=center;verticalAlign=middle;resizable=1;points=[];autosize=1;strokeColor=none;fillColor=none;movable=1;rotatable=1;deletable=1;editable=1;locked=0;connectable=1;" vertex="1" parent="qcMQwbJ4HSQ0VtLKpdM1-113">
          <mxGeometry y="28" width="41.14285714285714" height="26.25" as="geometry" />
        </mxCell>
        <mxCell id="qcMQwbJ4HSQ0VtLKpdM1-124" value="" style="endArrow=none;html=1;rounded=0;movable=1;resizable=1;rotatable=1;deletable=1;editable=1;locked=0;connectable=1;" edge="1" parent="1">
          <mxGeometry width="50" height="50" relative="1" as="geometry">
            <mxPoint x="210" y="522.7142857142858" as="sourcePoint" />
            <mxPoint x="156" y="506.7142857142858" as="targetPoint" />
          </mxGeometry>
        </mxCell>
        <mxCell id="qcMQwbJ4HSQ0VtLKpdM1-125" value="" style="endArrow=none;html=1;rounded=0;movable=1;resizable=1;rotatable=1;deletable=1;editable=1;locked=0;connectable=1;" edge="1" parent="1">
          <mxGeometry width="50" height="50" relative="1" as="geometry">
            <mxPoint x="156" y="602.7142857142858" as="sourcePoint" />
            <mxPoint x="210" y="586.7142857142858" as="targetPoint" />
          </mxGeometry>
        </mxCell>
        <mxCell id="qcMQwbJ4HSQ0VtLKpdM1-126" value="" style="endArrow=none;html=1;rounded=0;movable=1;resizable=1;rotatable=1;deletable=1;editable=1;locked=0;connectable=1;" edge="1" parent="1">
          <mxGeometry width="50" height="50" relative="1" as="geometry">
            <mxPoint x="156" y="506.7142857142858" as="sourcePoint" />
            <mxPoint x="156" y="602.7142857142858" as="targetPoint" />
          </mxGeometry>
        </mxCell>
        <mxCell id="qcMQwbJ4HSQ0VtLKpdM1-127" value="" style="endArrow=none;html=1;rounded=0;movable=1;resizable=1;rotatable=1;deletable=1;editable=1;locked=0;connectable=1;" edge="1" parent="1">
          <mxGeometry width="50" height="50" relative="1" as="geometry">
            <mxPoint x="210" y="586.7142857142858" as="sourcePoint" />
            <mxPoint x="210" y="522.7142857142858" as="targetPoint" />
          </mxGeometry>
        </mxCell>
        <mxCell id="qcMQwbJ4HSQ0VtLKpdM1-128" value="&lt;font style=&quot;text-wrap: wrap;&quot;&gt;expone&lt;/font&gt;&lt;div&gt;&lt;font style=&quot;text-wrap: wrap;&quot;&gt;n&lt;/font&gt;&lt;span style=&quot;background-color: initial; text-wrap: wrap;&quot;&gt;tion_&lt;/span&gt;&lt;div&gt;&lt;div style=&quot;text-wrap: wrap;&quot;&gt;result&lt;/div&gt;&lt;/div&gt;&lt;/div&gt;" style="text;html=1;align=center;verticalAlign=middle;resizable=1;points=[];autosize=1;strokeColor=none;fillColor=none;movable=1;rotatable=1;deletable=1;editable=1;locked=0;connectable=1;rotation=0;" vertex="1" parent="1">
          <mxGeometry x="149.5" y="526" width="60" height="60" as="geometry" />
        </mxCell>
        <mxCell id="qcMQwbJ4HSQ0VtLKpdM1-129" value="&#39;1&#39;" style="endArrow=classic;html=1;rounded=0;entryX=0.008;entryY=0.233;entryDx=0;entryDy=0;entryPerimeter=0;" edge="1" parent="1">
          <mxGeometry x="-0.4023" width="50" height="50" relative="1" as="geometry">
            <mxPoint x="102" y="540" as="sourcePoint" />
            <mxPoint x="155.9799999999999" y="539.98" as="targetPoint" />
            <mxPoint as="offset" />
          </mxGeometry>
        </mxCell>
        <mxCell id="qcMQwbJ4HSQ0VtLKpdM1-130" value="" style="endArrow=classic;html=1;rounded=0;" edge="1" parent="1">
          <mxGeometry width="50" height="50" relative="1" as="geometry">
            <mxPoint x="696" y="498" as="sourcePoint" />
            <mxPoint x="186" y="516" as="targetPoint" />
            <Array as="points">
              <mxPoint x="186" y="498" />
            </Array>
          </mxGeometry>
        </mxCell>
        <mxCell id="qcMQwbJ4HSQ0VtLKpdM1-131" value="" style="ellipse;whiteSpace=wrap;html=1;fillColor=#000000;" vertex="1" parent="1">
          <mxGeometry x="694" y="496" width="3" height="3" as="geometry" />
        </mxCell>
        <mxCell id="qcMQwbJ4HSQ0VtLKpdM1-132" value="&lt;b&gt;result&lt;/b&gt;" style="endArrow=classic;html=1;rounded=0;exitX=1.024;exitY=0.649;exitDx=0;exitDy=0;exitPerimeter=0;" edge="1" parent="1" source="qcMQwbJ4HSQ0VtLKpdM1-128">
          <mxGeometry x="0.2953" width="50" height="50" relative="1" as="geometry">
            <mxPoint x="246" y="716" as="sourcePoint" />
            <mxPoint x="377.84615384615387" y="528" as="targetPoint" />
            <Array as="points">
              <mxPoint x="264" y="565" />
              <mxPoint x="264" y="528" />
            </Array>
            <mxPoint as="offset" />
          </mxGeometry>
        </mxCell>
        <mxCell id="qcMQwbJ4HSQ0VtLKpdM1-134" value="" style="endArrow=none;html=1;rounded=0;" edge="1" parent="1">
          <mxGeometry width="50" height="50" relative="1" as="geometry">
            <mxPoint x="272" y="533" as="sourcePoint" />
            <mxPoint x="284" y="523" as="targetPoint" />
          </mxGeometry>
        </mxCell>
      </root>
    </mxGraphModel>
  </diagram>
</mxfile>
